STARTFONT 2.1
FONT -Bitstream-Terminal-Bold-R-Narrow--36-280-100-100-C-140-DEC-DECtech
SIZE 28 100 100
FONTBOUNDINGBOX 14 40 0 -10

STARTPROPERTIES 25
CHARSET_REGISTRY "DEC"
CHARSET_ENCODING "DECtech"
CAP_HEIGHT 22
X_HEIGHT 18
AVERAGE_WIDTH 140
FONTNAME_REGISTRY ""
FAMILY_NAME "Terminal"
FOUNDRY "Bitstream"
WEIGHT_NAME "Bold"
SETWIDTH_NAME "Narrow"
SLANT "R"
ADD_STYLE_NAME ""
PIXEL_SIZE 36
POINT_SIZE 280
RESOLUTION_X 100
RESOLUTION_Y 100
SPACING "C"
CHARSET_COLLECTIONS "DEC-DECtech"
FULL_NAME "Terminal Bold Narrow"
COPYRIGHT "Copyright (c) 1988 Bitstream, Inc., Copyright 1990 Digital Equipment Corp. All rights reserved."
WEIGHT 10
QUAD_WIDTH 14
DEFAULT_CHAR 159
FONT_DESCENT 10
FONT_ASCENT 30
ENDPROPERTIES

CHARS 181

STARTCHAR space
ENCODING 32
SWIDTH 360 0
DWIDTH 14 0
BBX 1 1 0 0
BITMAP
00
ENDCHAR

STARTCHAR exclam
ENCODING 33
SWIDTH 360 0
DWIDTH 14 0
BBX 6 22 4 0
BITMAP
78
78
78
78
78
78
78
78
78
78
78
78
78
78
00
00
00
78
FC
FC
FC
78
ENDCHAR

STARTCHAR quotedbl
ENCODING 34
SWIDTH 360 0
DWIDTH 14 0
BBX 8 10 3 18
BITMAP
E7
E7
E7
E7
E7
E7
E7
E7
E7
E7
ENDCHAR

STARTCHAR numbersign
ENCODING 35
SWIDTH 360 0
DWIDTH 14 0
BBX 12 26 1 -4
BITMAP
39C0
39C0
39C0
39C0
39C0
39C0
39C0
FFF0
FFF0
FFF0
FFF0
39C0
39C0
39C0
39C0
FFF0
FFF0
FFF0
FFF0
39C0
39C0
39C0
39C0
39C0
39C0
39C0
ENDCHAR

STARTCHAR dollar
ENCODING 36
SWIDTH 360 0
DWIDTH 14 0
BBX 12 30 1 -5
BITMAP
0700
0700
0700
0700
1FB0
7FF0
7FF0
F8F0
F070
F070
F000
F800
7E00
7F80
1FE0
07E0
01F0
00F0
00F0
E0F0
F1F0
FFE0
FFE0
CF80
0E00
0E00
0E00
0E00
0E00
0E00
ENDCHAR

STARTCHAR percent
ENCODING 37
SWIDTH 360 0
DWIDTH 14 0
BBX 14 22 0 0
BITMAP
3F00
7F80
F3C0
F3C0
F3C0
F3C0
7F80
3F1C
007C
03FC
0FE0
3F80
FC00
F000
C3F0
07F8
0F3C
0F3C
0F3C
0F3C
07F8
03F0
ENDCHAR

STARTCHAR ampersand
ENCODING 38
SWIDTH 360 0
DWIDTH 14 0
BBX 12 22 1 0
BITMAP
0F60
0FE0
3FE0
3EE0
3C60
3C00
3C00
3C00
1C00
1E00
0E00
7F00
7F30
FFB0
F3B0
F3F0
F1E0
F1E0
FFF0
FFF0
3E70
3C70
ENDCHAR

STARTCHAR quoteright
ENCODING 39
SWIDTH 360 0
DWIDTH 14 0
BBX 7 9 3 19
BITMAP
3E
3C
3C
78
78
70
F0
E0
E0
ENDCHAR

STARTCHAR parenleft
ENCODING 40
SWIDTH 360 0
DWIDTH 14 0
BBX 9 32 3 -4
BITMAP
0780
0F00
1E00
1E00
3C00
3C00
7800
7800
7800
F000
F000
F000
F000
F000
F000
F000
F000
F000
F000
F000
F000
F000
F000
7800
7800
7800
3C00
3C00
1E00
1E00
0F00
0780
ENDCHAR

STARTCHAR parenright
ENCODING 41
SWIDTH 360 0
DWIDTH 14 0
BBX 9 32 2 -4
BITMAP
F000
7800
3C00
3C00
1E00
1E00
0F00
0F00
0F00
0780
0780
0780
0780
0780
0780
0780
0780
0780
0780
0780
0780
0780
0780
0F00
0F00
0F00
1E00
1E00
3C00
3C00
7800
F000
ENDCHAR

STARTCHAR asterisk
ENCODING 42
SWIDTH 360 0
DWIDTH 14 0
BBX 10 12 2 5
BITMAP
0C00
0C00
0C00
CCC0
EDC0
FFC0
3F00
1E00
3F00
7380
E1C0
C0C0
ENDCHAR

STARTCHAR plus
ENCODING 43
SWIDTH 360 0
DWIDTH 14 0
BBX 12 16 1 2
BITMAP
0F00
0F00
0F00
0F00
0F00
0F00
FFF0
FFF0
FFF0
FFF0
0F00
0F00
0F00
0F00
0F00
0F00
ENDCHAR

STARTCHAR comma
ENCODING 44
SWIDTH 360 0
DWIDTH 14 0
BBX 7 9 3 -4
BITMAP
3E
3C
3C
78
78
70
F0
E0
E0
ENDCHAR

STARTCHAR minus
ENCODING 45
SWIDTH 360 0
DWIDTH 14 0
BBX 10 4 2 8
BITMAP
FFC0
FFC0
FFC0
FFC0
ENDCHAR

STARTCHAR period
ENCODING 46
SWIDTH 360 0
DWIDTH 14 0
BBX 6 5 4 0
BITMAP
78
FC
FC
FC
78
ENDCHAR

STARTCHAR slash
ENCODING 47
SWIDTH 360 0
DWIDTH 14 0
BBX 11 27 2 -2
BITMAP
01E0
01E0
01E0
03C0
03C0
03C0
03C0
0780
0780
0780
0F00
0F00
0F00
0F00
1E00
1E00
1E00
3C00
3C00
3C00
7800
7800
7800
7800
F000
F000
F000
ENDCHAR

STARTCHAR zero
ENCODING 48
SWIDTH 360 0
DWIDTH 14 0
BBX 11 22 1 0
BITMAP
1F00
3F80
7FC0
7FC0
FBE0
F1E0
F1E0
F1E0
F1E0
F1E0
F1E0
F1E0
F1E0
F1E0
F1E0
F1E0
F1E0
FBE0
7FC0
7FC0
3F80
1F00
ENDCHAR

STARTCHAR one
ENCODING 49
SWIDTH 360 0
DWIDTH 14 0
BBX 11 22 1 0
BITMAP
0700
0F00
1F00
3F00
7F00
FF00
EF00
4F00
0F00
0F00
0F00
0F00
0F00
0F00
0F00
0F00
0F00
0F00
7FE0
7FE0
7FE0
7FE0
ENDCHAR

STARTCHAR two
ENCODING 50
SWIDTH 360 0
DWIDTH 14 0
BBX 11 22 1 0
BITMAP
1F00
7FC0
7FC0
FFE0
E1E0
E1E0
E1E0
01E0
03C0
03C0
0380
0780
0F00
0E00
1E00
3C00
3860
7860
FFE0
FFE0
FFE0
FFE0
ENDCHAR

STARTCHAR three
ENCODING 51
SWIDTH 360 0
DWIDTH 14 0
BBX 11 22 1 0
BITMAP
1F00
7FC0
7FC0
FFE0
E1E0
E1E0
01E0
01E0
01C0
0FC0
0F80
0FC0
01E0
01E0
01E0
01E0
E1E0
E1E0
FFE0
7FC0
7FC0
1F00
ENDCHAR

STARTCHAR four
ENCODING 52
SWIDTH 360 0
DWIDTH 14 0
BBX 12 22 1 0
BITMAP
03C0
07C0
07C0
0FC0
0FC0
1FC0
1BC0
3BC0
33C0
73C0
63C0
E3C0
FFF0
FFF0
FFF0
FFF0
03C0
03C0
03C0
03C0
03C0
03C0
ENDCHAR

STARTCHAR five
ENCODING 53
SWIDTH 360 0
DWIDTH 14 0
BBX 11 22 1 0
BITMAP
FFE0
FFE0
FFE0
FFE0
E000
E000
E000
EF00
FFC0
FFC0
FFE0
F1E0
F1E0
01E0
01E0
01E0
F1E0
F1E0
FFE0
7FC0
7FC0
1F00
ENDCHAR

STARTCHAR six
ENCODING 54
SWIDTH 360 0
DWIDTH 14 0
BBX 11 22 1 0
BITMAP
03C0
0FC0
1FC0
3F00
7C00
7800
7800
F700
FFC0
FFC0
FFE0
F1E0
F1E0
F1E0
F1E0
F1E0
F1E0
F1E0
FFE0
7FC0
7FC0
1F00
ENDCHAR

STARTCHAR seven
ENCODING 55
SWIDTH 360 0
DWIDTH 14 0
BBX 11 22 1 0
BITMAP
FFE0
FFE0
FFE0
FFE0
01E0
01E0
01C0
03C0
03C0
0380
0380
0780
0780
0700
0F00
0F00
0E00
0E00
1E00
1E00
1E00
1E00
ENDCHAR

STARTCHAR eight
ENCODING 56
SWIDTH 360 0
DWIDTH 14 0
BBX 11 22 1 0
BITMAP
0E00
3F80
7FC0
7FC0
F1E0
F1E0
F1E0
F1E0
71C0
7FC0
3F80
7FC0
7FC0
F1E0
F1E0
F1E0
F1E0
F1E0
FFE0
7FC0
7FC0
1F00
ENDCHAR

STARTCHAR nine
ENCODING 57
SWIDTH 360 0
DWIDTH 14 0
BBX 11 22 1 0
BITMAP
1F00
7FC0
7FC0
FFE0
F1E0
F1E0
F1E0
F1E0
F1E0
F1E0
F1E0
FFE0
7FE0
7FE0
1DE0
01C0
03C0
07C0
1F80
7F00
7E00
7800
ENDCHAR

STARTCHAR colon
ENCODING 58
SWIDTH 360 0
DWIDTH 14 0
BBX 6 16 4 0
BITMAP
78
FC
FC
FC
78
00
00
00
00
00
00
78
FC
FC
FC
78
ENDCHAR

STARTCHAR semicolon
ENCODING 59
SWIDTH 360 0
DWIDTH 14 0
BBX 7 20 3 -4
BITMAP
3C
7E
7E
7E
3C
00
00
00
00
00
00
3E
3C
3C
78
78
70
F0
E0
E0
ENDCHAR

STARTCHAR less
ENCODING 60
SWIDTH 360 0
DWIDTH 14 0
BBX 13 16 0 2
BITMAP
0008
0038
00F8
03F8
0FE0
3F80
FE00
F800
F800
FE00
3F80
0FE0
03F8
00F8
0038
0008
ENDCHAR

STARTCHAR equal
ENCODING 61
SWIDTH 360 0
DWIDTH 14 0
BBX 12 12 1 4
BITMAP
FFF0
FFF0
FFF0
FFF0
0000
0000
0000
0000
FFF0
FFF0
FFF0
FFF0
ENDCHAR

STARTCHAR greater
ENCODING 62
SWIDTH 360 0
DWIDTH 14 0
BBX 13 16 0 2
BITMAP
8000
E000
F800
FE00
3F80
0FE0
03F8
00F8
00F8
03F8
0FE0
3F80
FE00
F800
E000
8000
ENDCHAR

STARTCHAR question
ENCODING 63
SWIDTH 360 0
DWIDTH 14 0
BBX 12 22 1 0
BITMAP
1F80
7FE0
7FE0
F9F0
E0F0
E0F0
01F0
03E0
07C0
0780
0F00
0F00
0F00
0F00
0000
0000
0000
0F00
1F80
1F80
1F80
0F00
ENDCHAR

STARTCHAR at
ENCODING 64
SWIDTH 360 0
DWIDTH 14 0
BBX 12 28 1 -4
BITMAP
1F80
7FC0
7FE0
FFE0
F0E0
E0E0
E0E0
E0E0
E7E0
E7E0
EFE0
EFE0
EEE0
EEE0
EEE0
EEE0
EFF0
EFF0
E7B0
E7B0
E000
E000
E030
F030
7DF0
7FF0
3FE0
0F80
ENDCHAR

STARTCHAR A
ENCODING 65
SWIDTH 360 0
DWIDTH 14 0
BBX 12 22 1 0
BITMAP
0F00
1F80
1F80
3FC0
3FC0
79E0
79E0
F0F0
F0F0
F0F0
F0F0
F0F0
FFF0
FFF0
FFF0
FFF0
F0F0
F0F0
F0F0
F0F0
F0F0
F0F0
ENDCHAR

STARTCHAR B
ENCODING 66
SWIDTH 360 0
DWIDTH 14 0
BBX 12 22 1 0
BITMAP
FF80
FFE0
FFE0
FFF0
F0F0
F0F0
F0F0
F0F0
FFF0
FFE0
FFC0
FFE0
F0E0
F0F0
F0F0
F0F0
F0F0
F0F0
FFF0
FFE0
FFE0
FF80
ENDCHAR

STARTCHAR C
ENCODING 67
SWIDTH 360 0
DWIDTH 14 0
BBX 12 22 1 0
BITMAP
0E70
3F70
3FF0
7FF0
78F0
F070
F070
F070
F000
F000
F000
F000
F000
F000
F000
F000
F070
78F0
7FF0
3FE0
3FC0
0F80
ENDCHAR

STARTCHAR D
ENCODING 68
SWIDTH 360 0
DWIDTH 14 0
BBX 12 22 1 0
BITMAP
FF00
FFC0
FFE0
FFE0
F1F0
F0F0
F0F0
F0F0
F0F0
F0F0
F0F0
F0F0
F0F0
F0F0
F0F0
F0F0
F0F0
F1F0
FFE0
FFE0
FFC0
FF00
ENDCHAR

STARTCHAR E
ENCODING 69
SWIDTH 360 0
DWIDTH 14 0
BBX 11 22 1 0
BITMAP
FFE0
FFE0
FFE0
FFE0
F000
F000
F000
F000
FFC0
FFC0
FFC0
FFC0
F000
F000
F000
F000
F000
F000
FFE0
FFE0
FFE0
FFE0
ENDCHAR

STARTCHAR F
ENCODING 70
SWIDTH 360 0
DWIDTH 14 0
BBX 11 22 1 0
BITMAP
FFE0
FFE0
FFE0
FFE0
F000
F000
F000
F000
FFC0
FFC0
FFC0
FFC0
F000
F000
F000
F000
F000
F000
F000
F000
F000
F000
ENDCHAR

STARTCHAR G
ENCODING 71
SWIDTH 360 0
DWIDTH 14 0
BBX 12 22 1 0
BITMAP
0E70
3F70
3FF0
7FF0
78F0
F070
F070
F070
F000
F000
F3F0
F3F0
F3F0
F3F0
F0F0
F0F0
F0F0
78F0
7FF0
3FE0
3FE0
0F80
ENDCHAR

STARTCHAR H
ENCODING 72
SWIDTH 360 0
DWIDTH 14 0
BBX 12 22 1 0
BITMAP
F0F0
F0F0
F0F0
F0F0
F0F0
F0F0
F0F0
F0F0
FFF0
FFF0
FFF0
FFF0
F0F0
F0F0
F0F0
F0F0
F0F0
F0F0
F0F0
F0F0
F0F0
F0F0
ENDCHAR

STARTCHAR I
ENCODING 73
SWIDTH 360 0
DWIDTH 14 0
BBX 10 22 2 0
BITMAP
FFC0
FFC0
FFC0
FFC0
1E00
1E00
1E00
1E00
1E00
1E00
1E00
1E00
1E00
1E00
1E00
1E00
1E00
1E00
FFC0
FFC0
FFC0
FFC0
ENDCHAR

STARTCHAR J
ENCODING 74
SWIDTH 360 0
DWIDTH 14 0
BBX 13 22 0 0
BITMAP
1FF8
1FF8
1FF8
1FF8
01E0
01E0
01E0
01E0
01E0
01E0
01E0
01E0
E1E0
E1E0
E1E0
E1E0
E1E0
E1E0
FFE0
FFC0
7FC0
3F80
ENDCHAR

STARTCHAR K
ENCODING 75
SWIDTH 360 0
DWIDTH 14 0
BBX 12 22 1 0
BITMAP
F0F0
F0F0
F1F0
F1F0
F3C0
F3C0
F780
F780
FF00
FF00
FF00
FF80
F780
F3C0
F3C0
F1E0
F1E0
F1E0
F0F0
F0F0
F0F0
F0F0
ENDCHAR

STARTCHAR L
ENCODING 76
SWIDTH 360 0
DWIDTH 14 0
BBX 12 22 1 0
BITMAP
FF00
FF00
FF00
FF00
3C00
3C00
3C00
3C00
3C00
3C00
3C00
3C00
3C00
3C00
3C00
3C00
3C30
3C30
FFF0
FFF0
FFF0
FFF0
ENDCHAR

STARTCHAR M
ENCODING 77
SWIDTH 360 0
DWIDTH 14 0
BBX 12 22 1 0
BITMAP
E070
E070
F0F0
F0F0
F0F0
F0F0
F9F0
F9F0
F9F0
FFF0
FFF0
FFF0
F6F0
F6F0
F6F0
F6F0
F0F0
F0F0
F0F0
F0F0
F0F0
F0F0
ENDCHAR

STARTCHAR N
ENCODING 78
SWIDTH 360 0
DWIDTH 14 0
BBX 12 22 1 0
BITMAP
F0F0
F0F0
F8F0
F8F0
F8F0
F8F0
F8F0
FCF0
FCF0
FCF0
F6F0
F6F0
F6F0
F7F0
F3F0
F3F0
F3F0
F1F0
F1F0
F1F0
F0F0
F0F0
ENDCHAR

STARTCHAR O
ENCODING 79
SWIDTH 360 0
DWIDTH 14 0
BBX 12 22 1 0
BITMAP
1F80
7FE0
7FE0
FFF0
F9F0
F0F0
F0F0
F0F0
F0F0
F0F0
F0F0
F0F0
F0F0
F0F0
F0F0
F0F0
F0F0
F9F0
FFF0
7FE0
7FE0
1F80
ENDCHAR

STARTCHAR P
ENCODING 80
SWIDTH 360 0
DWIDTH 14 0
BBX 12 22 1 0
BITMAP
FF80
FFE0
FFE0
FFF0
F0F0
F0F0
F0F0
F0F0
F0F0
F0F0
FFF0
FFE0
FFE0
FF80
F000
F000
F000
F000
F000
F000
F000
F000
ENDCHAR

STARTCHAR Q
ENCODING 81
SWIDTH 360 0
DWIDTH 14 0
BBX 12 30 1 -8
BITMAP
0F00
3FC0
3FC0
7FE0
79E0
F0F0
F0F0
F0F0
F0F0
F0F0
F0F0
F0F0
F0F0
F0F0
F0F0
F0F0
F0F0
79E0
7FE0
3FC0
3FC0
1F00
3800
3800
7C30
7E30
EFF0
E7F0
C3E0
C1C0
ENDCHAR

STARTCHAR R
ENCODING 82
SWIDTH 360 0
DWIDTH 14 0
BBX 12 22 1 0
BITMAP
FF80
FFE0
FFE0
FFF0
F0F0
F0F0
F0F0
F0F0
F0F0
F0F0
FFE0
FFE0
FF80
FF80
F3C0
F3C0
F1C0
F1E0
F1E0
F0F0
F0F0
F070
ENDCHAR

STARTCHAR S
ENCODING 83
SWIDTH 360 0
DWIDTH 14 0
BBX 12 22 1 0
BITMAP
1F70
7FF0
7FF0
FFF0
F070
F070
F000
F000
F000
FC00
7F80
7FE0
1FE0
01F0
00F0
00F0
E0F0
E0F0
FFF0
FFE0
FFE0
CF80
ENDCHAR

STARTCHAR T
ENCODING 84
SWIDTH 360 0
DWIDTH 14 0
BBX 12 22 1 0
BITMAP
FFF0
FFF0
FFF0
FFF0
CF30
CF30
0F00
0F00
0F00
0F00
0F00
0F00
0F00
0F00
0F00
0F00
0F00
0F00
1F80
1F80
1F80
1F80
ENDCHAR

STARTCHAR U
ENCODING 85
SWIDTH 360 0
DWIDTH 14 0
BBX 12 22 1 0
BITMAP
F0F0
F0F0
F0F0
F0F0
F0F0
F0F0
F0F0
F0F0
F0F0
F0F0
F0F0
F0F0
F0F0
F0F0
F0F0
F0F0
F0F0
F0F0
FFF0
7FE0
7FE0
1F80
ENDCHAR

STARTCHAR V
ENCODING 86
SWIDTH 360 0
DWIDTH 14 0
BBX 12 22 1 0
BITMAP
F0F0
F0F0
F0F0
F0F0
F0F0
F0F0
F0F0
F0F0
F0F0
F0F0
F0F0
F0F0
F0F0
F0F0
79E0
79E0
39C0
3FC0
1F80
1F80
0F00
0F00
ENDCHAR

STARTCHAR W
ENCODING 87
SWIDTH 360 0
DWIDTH 14 0
BBX 12 22 1 0
BITMAP
F0F0
F0F0
F0F0
F0F0
F0F0
F0F0
F0F0
F0F0
F6F0
F6F0
F6F0
F6F0
FFF0
FFF0
F9F0
F9F0
79E0
70E0
70E0
70E0
70E0
70E0
ENDCHAR

STARTCHAR X
ENCODING 88
SWIDTH 360 0
DWIDTH 14 0
BBX 12 22 1 0
BITMAP
F0F0
F0F0
F0F0
F0F0
79E0
79E0
3FC0
3FC0
1F80
1F80
0F00
0F00
1F80
1F80
3FC0
3FC0
79E0
79E0
F0F0
F0F0
F0F0
F0F0
ENDCHAR

STARTCHAR Y
ENCODING 89
SWIDTH 360 0
DWIDTH 14 0
BBX 12 22 1 0
BITMAP
F0F0
F0F0
F0F0
F0F0
70E0
70E0
79E0
39C0
39C0
39C0
1F80
1F80
1F80
0F00
0F00
0F00
0F00
0F00
1F80
1F80
1F80
1F80
ENDCHAR

STARTCHAR Z
ENCODING 90
SWIDTH 360 0
DWIDTH 14 0
BBX 12 22 1 0
BITMAP
FFF0
FFF0
FFF0
FFF0
C1E0
C1E0
03C0
03C0
0780
0780
0F00
0F00
1E00
1E00
3C00
3C00
7830
7830
FFF0
FFF0
FFF0
FFF0
ENDCHAR

STARTCHAR bracketleft
ENCODING 91
SWIDTH 360 0
DWIDTH 14 0
BBX 6 32 4 -4
BITMAP
FC
FC
FC
FC
F0
F0
F0
F0
F0
F0
F0
F0
F0
F0
F0
F0
F0
F0
F0
F0
F0
F0
F0
F0
F0
F0
F0
F0
FC
FC
FC
FC
ENDCHAR

STARTCHAR backslash
ENCODING 92
SWIDTH 360 0
DWIDTH 14 0
BBX 11 27 1 -2
BITMAP
F000
F000
F000
7800
7800
7800
7800
3C00
3C00
3C00
1E00
1E00
1E00
1E00
0F00
0F00
0F00
0780
0780
0780
03C0
03C0
03C0
03C0
01E0
01E0
01E0
ENDCHAR

STARTCHAR bracketright
ENCODING 93
SWIDTH 360 0
DWIDTH 14 0
BBX 6 32 4 -4
BITMAP
FC
FC
FC
FC
3C
3C
3C
3C
3C
3C
3C
3C
3C
3C
3C
3C
3C
3C
3C
3C
3C
3C
3C
3C
3C
3C
3C
3C
FC
FC
FC
FC
ENDCHAR

STARTCHAR asciicircum
ENCODING 94
SWIDTH 360 0
DWIDTH 14 0
BBX 14 7 0 11
BITMAP
0300
0780
0FC0
1FE0
3CF0
7878
F03C
ENDCHAR

STARTCHAR ldblank
ENCODING 95
SWIDTH 360 0
DWIDTH 14 0
BBX 1 1 0 0
BITMAP
00
ENDCHAR

STARTCHAR diamond
ENCODING 96
SWIDTH 360 0
DWIDTH 14 0
BBX 12 24 1 0
BITMAP
0600
0600
0F00
0F00
1F80
1F80
3FC0
3FC0
7FE0
7FE0
FFF0
FFF0
FFF0
FFF0
7FE0
7FE0
3FC0
3FC0
1F80
1F80
0F00
0F00
0600
0600
ENDCHAR

STARTCHAR checkerboard
ENCODING 97
SWIDTH 360 0
DWIDTH 14 0
BBX 14 40 0 -10
BITMAP
AAA8
5554
AAA8
5554
AAA8
5554
AAA8
5554
AAA8
5554
AAA8
5554
AAA8
5554
AAA8
5554
AAA8
5554
AAA8
5554
AAA8
5554
AAA8
5554
AAA8
5554
AAA8
5554
AAA8
5554
AAA8
5554
AAA8
5554
AAA8
5554
AAA8
5554
AAA8
5554
ENDCHAR

STARTCHAR HT
ENCODING 98
SWIDTH 360 0
DWIDTH 14 0
BBX 12 26 1 -2
BITMAP
EE00
EE00
EE00
EE00
FE00
FE00
EE00
EE00
EE00
EE00
EE00
EE00
0000
0000
07F0
07F0
01C0
01C0
01C0
01C0
01C0
01C0
01C0
01C0
01C0
01C0
ENDCHAR

STARTCHAR FF
ENCODING 99
SWIDTH 360 0
DWIDTH 14 0
BBX 12 26 1 -2
BITMAP
FC00
FC00
E000
E000
FC00
FC00
E000
E000
E000
E000
E000
E000
0000
0000
03F0
03F0
0380
0380
03F0
03F0
0380
0380
0380
0380
0380
0380
ENDCHAR

STARTCHAR CR
ENCODING 100
SWIDTH 360 0
DWIDTH 14 0
BBX 12 26 1 -2
BITMAP
1C00
7E00
6300
E300
E000
E000
E000
E000
E300
6300
7E00
1C00
0000
0000
07C0
07E0
0770
0770
0770
0760
07C0
07E0
0760
0770
0730
0730
ENDCHAR

STARTCHAR LF
ENCODING 101
SWIDTH 360 0
DWIDTH 14 0
BBX 12 26 1 -2
BITMAP
E000
E000
E000
E000
E000
E000
E000
E000
E000
E000
FC00
FC00
0000
0000
03F0
03F0
0380
0380
03F0
03F0
0380
0380
0380
0380
0380
0380
ENDCHAR

STARTCHAR degree
ENCODING 102
SWIDTH 360 0
DWIDTH 14 0
BBX 11 11 1 12
BITMAP
1F00
3F80
7FC0
F1E0
E0E0
E0E0
E0E0
F1E0
7FC0
3F80
1F00
ENDCHAR

STARTCHAR plusminus
ENCODING 103
SWIDTH 360 0
DWIDTH 14 0
BBX 12 22 1 0
BITMAP
0F00
0F00
0F00
0F00
0F00
0F00
FFF0
FFF0
FFF0
FFF0
0F00
0F00
0F00
0F00
0F00
0F00
0000
0000
FFF0
FFF0
FFF0
FFF0
ENDCHAR

STARTCHAR NL
ENCODING 104
SWIDTH 360 0
DWIDTH 14 0
BBX 13 26 1 -2
BITMAP
E700
E700
F700
F700
F700
F700
EF00
EF00
EF00
EF00
E700
E700
0000
0000
01C0
01C0
01C0
01C0
01C0
01C0
01C0
01C0
01C0
01C0
01F8
01F8
ENDCHAR

STARTCHAR VT
ENCODING 105
SWIDTH 360 0
DWIDTH 14 0
BBX 12 26 1 -2
BITMAP
EE00
EE00
EE00
EE00
EE00
EE00
EE00
EE00
7C00
7C00
3800
3800
0000
0000
07F0
07F0
01C0
01C0
01C0
01C0
01C0
01C0
01C0
01C0
01C0
01C0
ENDCHAR

STARTCHAR ldcornsqlr
ENCODING 106
SWIDTH 360 0
DWIDTH 14 0
BBX 9 22 0 8
BITMAP
0780
0780
0780
0780
0780
0780
0780
0780
0780
0780
0780
0780
0780
0780
0780
0780
0780
0780
FF80
FF80
FF80
FF80
ENDCHAR

STARTCHAR ldcornsqur
ENCODING 107
SWIDTH 360 0
DWIDTH 14 0
BBX 9 22 0 -10
BITMAP
FF80
FF80
FF80
FF80
0780
0780
0780
0780
0780
0780
0780
0780
0780
0780
0780
0780
0780
0780
0780
0780
0780
0780
ENDCHAR

STARTCHAR ldcornsqul
ENCODING 108
SWIDTH 360 0
DWIDTH 14 0
BBX 9 22 5 -10
BITMAP
FF80
FF80
FF80
FF80
F000
F000
F000
F000
F000
F000
F000
F000
F000
F000
F000
F000
F000
F000
F000
F000
F000
F000
ENDCHAR

STARTCHAR ldcornsqll
ENCODING 109
SWIDTH 360 0
DWIDTH 14 0
BBX 9 22 5 8
BITMAP
F000
F000
F000
F000
F000
F000
F000
F000
F000
F000
F000
F000
F000
F000
F000
F000
F000
F000
FF80
FF80
FF80
FF80
ENDCHAR

STARTCHAR ldcross
ENCODING 110
SWIDTH 360 0
DWIDTH 14 0
BBX 14 40 0 -10
BITMAP
0780
0780
0780
0780
0780
0780
0780
0780
0780
0780
0780
0780
0780
0780
0780
0780
0780
0780
FFFC
FFFC
FFFC
FFFC
0780
0780
0780
0780
0780
0780
0780
0780
0780
0780
0780
0780
0780
0780
0780
0780
0780
0780
ENDCHAR

STARTCHAR ldscan1
ENCODING 111
SWIDTH 360 0
DWIDTH 14 0
BBX 14 4 0 24
BITMAP
FFFC
FFFC
FFFC
FFFC
ENDCHAR

STARTCHAR ldscan3
ENCODING 112
SWIDTH 360 0
DWIDTH 14 0
BBX 14 4 0 16
BITMAP
FFFC
FFFC
FFFC
FFFC
ENDCHAR

STARTCHAR ldhorizontal
ENCODING 113
SWIDTH 360 0
DWIDTH 14 0
BBX 14 4 0 8
BITMAP
FFFC
FFFC
FFFC
FFFC
ENDCHAR

STARTCHAR ldscan7
ENCODING 114
SWIDTH 360 0
DWIDTH 14 0
BBX 14 4 0 0
BITMAP
FFFC
FFFC
FFFC
FFFC
ENDCHAR

STARTCHAR ldscan9
ENCODING 115
SWIDTH 360 0
DWIDTH 14 0
BBX 14 4 0 -8
BITMAP
FFFC
FFFC
FFFC
FFFC
ENDCHAR

STARTCHAR ldteelft
ENCODING 116
SWIDTH 360 0
DWIDTH 14 0
BBX 9 40 5 -10
BITMAP
F000
F000
F000
F000
F000
F000
F000
F000
F000
F000
F000
F000
F000
F000
F000
F000
F000
F000
FF80
FF80
FF80
FF80
F000
F000
F000
F000
F000
F000
F000
F000
F000
F000
F000
F000
F000
F000
F000
F000
F000
F000
ENDCHAR

STARTCHAR ldteert
ENCODING 117
SWIDTH 360 0
DWIDTH 14 0
BBX 9 40 0 -10
BITMAP
0780
0780
0780
0780
0780
0780
0780
0780
0780
0780
0780
0780
0780
0780
0780
0780
0780
0780
FF80
FF80
FF80
FF80
0780
0780
0780
0780
0780
0780
0780
0780
0780
0780
0780
0780
0780
0780
0780
0780
0780
0780
ENDCHAR

STARTCHAR ldteebt
ENCODING 118
SWIDTH 360 0
DWIDTH 14 0
BBX 14 22 0 8
BITMAP
0780
0780
0780
0780
0780
0780
0780
0780
0780
0780
0780
0780
0780
0780
0780
0780
0780
0780
FFFC
FFFC
FFFC
FFFC
ENDCHAR

STARTCHAR ldteetp
ENCODING 119
SWIDTH 360 0
DWIDTH 14 0
BBX 14 22 0 -10
BITMAP
FFFC
FFFC
FFFC
FFFC
0780
0780
0780
0780
0780
0780
0780
0780
0780
0780
0780
0780
0780
0780
0780
0780
0780
0780
ENDCHAR

STARTCHAR ldvertical
ENCODING 120
SWIDTH 360 0
DWIDTH 14 0
BBX 4 40 5 -10
BITMAP
F0
F0
F0
F0
F0
F0
F0
F0
F0
F0
F0
F0
F0
F0
F0
F0
F0
F0
F0
F0
F0
F0
F0
F0
F0
F0
F0
F0
F0
F0
F0
F0
F0
F0
F0
F0
F0
F0
F0
F0
ENDCHAR

STARTCHAR lessequal
ENCODING 121
SWIDTH 360 0
DWIDTH 14 0
BBX 13 19 0 0
BITMAP
0018
0078
01F8
07F0
1FC0
7F00
FC00
7F00
1FC0
07F0
01F8
0078
0018
0000
0000
7FF8
7FF8
7FF8
7FF8
ENDCHAR

STARTCHAR greaterequal
ENCODING 122
SWIDTH 360 0
DWIDTH 14 0
BBX 13 19 1 0
BITMAP
C000
F000
FC00
7F00
1FC0
07F0
01F8
07F0
1FC0
7F00
FC00
F000
C000
0000
0000
FFF0
FFF0
FFF0
FFF0
ENDCHAR

STARTCHAR pi
ENCODING 123
SWIDTH 360 0
DWIDTH 14 0
BBX 12 18 1 0
BITMAP
FFF0
FFF0
FFF0
FFF0
79E0
79E0
79E0
79E0
79E0
79E0
71C0
71C0
F3C0
F3C0
F3C0
F3C0
F3C0
F3C0
ENDCHAR

STARTCHAR notequal
ENCODING 124
SWIDTH 360 0
DWIDTH 14 0
BBX 12 20 1 0
BITMAP
00C0
00C0
0180
0180
FFF0
FFF0
FFF0
FFF0
0700
0700
0E00
0E00
FFF0
FFF0
FFF0
FFF0
1800
1800
3000
3000
ENDCHAR

STARTCHAR sterling
ENCODING 125
SWIDTH 360 0
DWIDTH 14 0
BBX 12 22 1 0
BITMAP
07C0
1FE0
1FF0
3FF0
3C70
3C70
3C00
3C00
3C00
FFC0
FFC0
FFC0
FFC0
1E00
1E00
1E00
3C30
3C30
7FF0
FFE0
E7E0
E3C0
ENDCHAR

STARTCHAR periodcentered
ENCODING 126
SWIDTH 360 0
DWIDTH 14 0
BBX 6 5 4 6
BITMAP
78
FC
FC
FC
78
ENDCHAR

STARTCHAR Error
ENCODING 159
SWIDTH 360 0
DWIDTH 14 0
BBX 14 37 0 -9
BITMAP
1FE0
7FF8
7FF8
FFFC
FFFC
FCFC
FCFC
FCFC
FC00
FC00
FC00
FE00
7E00
7F00
3F80
3F80
1FC0
0FC0
0FC0
0FC0
0FC0
0FC0
0FC0
0FC0
0000
0000
0000
0000
0FC0
0FC0
1FE0
1FE0
1FE0
1FE0
1FE0
0FC0
0FC0
ENDCHAR

STARTCHAR ldradicalbt
ENCODING 161
SWIDTH 360 0
DWIDTH 14 0
BBX 9 35 0 -5
BITMAP
0780
0780
0780
0780
0780
0780
0780
0780
0780
0780
0780
0780
0780
0780
0780
0780
E780
E780
E780
E780
E780
7780
7780
7780
7780
7F80
7F80
3F80
3F80
3F80
3F80
1F80
1F80
1F80
1F80
ENDCHAR

STARTCHAR ldradicaltp
ENCODING 162
SWIDTH 360 0
DWIDTH 14 0
BBX 9 22 5 -10
BITMAP
FF80
FF80
FF80
FF80
F000
F000
F000
F000
F000
F000
F000
F000
F000
F000
F000
F000
F000
F000
F000
F000
F000
F000
ENDCHAR

STARTCHAR ldhorizontal
ENCODING 163
SWIDTH 360 0
DWIDTH 14 0
BBX 14 4 0 8
BITMAP
FFFC
FFFC
FFFC
FFFC
ENDCHAR

STARTCHAR ldintegraltp
ENCODING 164
SWIDTH 360 0
DWIDTH 14 0
BBX 9 38 5 -10
BITMAP
1E00
7F00
7F80
F380
F380
F000
F000
F000
F000
F000
F000
F000
F000
F000
F000
F000
F000
F000
F000
F000
F000
F000
F000
F000
F000
F000
F000
F000
F000
F000
F000
F000
F000
F000
F000
F000
F000
F000
ENDCHAR

STARTCHAR ldintegralbt
ENCODING 165
SWIDTH 360 0
DWIDTH 14 0
BBX 9 40 0 -10
BITMAP
0780
0780
0780
0780
0780
0780
0780
0780
0780
0780
0780
0780
0780
0780
0780
0780
0780
0780
0780
0780
0780
0780
0780
0780
0780
0780
0780
0780
0780
0780
0780
0780
0780
0780
0780
E780
FF80
7F00
7F00
1C00
ENDCHAR

STARTCHAR ldvertical
ENCODING 166
SWIDTH 360 0
DWIDTH 14 0
BBX 4 40 5 -10
BITMAP
F0
F0
F0
F0
F0
F0
F0
F0
F0
F0
F0
F0
F0
F0
F0
F0
F0
F0
F0
F0
F0
F0
F0
F0
F0
F0
F0
F0
F0
F0
F0
F0
F0
F0
F0
F0
F0
F0
F0
F0
ENDCHAR

STARTCHAR ldbracketlfttp
ENCODING 167
SWIDTH 360 0
DWIDTH 14 0
BBX 8 36 5 -10
BITMAP
FF
FF
FF
FF
F0
F0
F0
F0
F0
F0
F0
F0
F0
F0
F0
F0
F0
F0
F0
F0
F0
F0
F0
F0
F0
F0
F0
F0
F0
F0
F0
F0
F0
F0
F0
F0
ENDCHAR

STARTCHAR ldbracketlftbt
ENCODING 168
SWIDTH 360 0
DWIDTH 14 0
BBX 8 38 5 -8
BITMAP
F0
F0
F0
F0
F0
F0
F0
F0
F0
F0
F0
F0
F0
F0
F0
F0
F0
F0
F0
F0
F0
F0
F0
F0
F0
F0
F0
F0
F0
F0
F0
F0
F0
F0
FF
FF
FF
FF
ENDCHAR

STARTCHAR ldbracketrttp
ENCODING 169
SWIDTH 360 0
DWIDTH 14 0
BBX 8 36 1 -10
BITMAP
FF
FF
FF
FF
0F
0F
0F
0F
0F
0F
0F
0F
0F
0F
0F
0F
0F
0F
0F
0F
0F
0F
0F
0F
0F
0F
0F
0F
0F
0F
0F
0F
0F
0F
0F
0F
ENDCHAR

STARTCHAR ldbracketrtbt
ENCODING 170
SWIDTH 360 0
DWIDTH 14 0
BBX 8 38 1 -8
BITMAP
0F
0F
0F
0F
0F
0F
0F
0F
0F
0F
0F
0F
0F
0F
0F
0F
0F
0F
0F
0F
0F
0F
0F
0F
0F
0F
0F
0F
0F
0F
0F
0F
0F
0F
FF
FF
FF
FF
ENDCHAR

STARTCHAR ldbracelfttp
ENCODING 171
SWIDTH 360 0
DWIDTH 14 0
BBX 8 36 5 -10
BITMAP
1F
1F
7F
7F
78
78
F0
F0
F0
F0
F0
F0
F0
F0
F0
F0
F0
F0
F0
F0
F0
F0
F0
F0
F0
F0
F0
F0
F0
F0
F0
F0
F0
F0
F0
F0
ENDCHAR

STARTCHAR ldbracelftbt
ENCODING 172
SWIDTH 360 0
DWIDTH 14 0
BBX 8 37 5 -7
BITMAP
F0
F0
F0
F0
F0
F0
F0
F0
F0
F0
F0
F0
F0
F0
F0
F0
F0
F0
F0
F0
F0
F0
F0
F0
F0
F0
F0
F0
F0
F0
F0
78
78
7F
7F
1F
1F
ENDCHAR

STARTCHAR ldbracerttp
ENCODING 173
SWIDTH 360 0
DWIDTH 14 0
BBX 8 36 1 -10
BITMAP
F8
F8
FE
FE
1E
1E
0F
0F
0F
0F
0F
0F
0F
0F
0F
0F
0F
0F
0F
0F
0F
0F
0F
0F
0F
0F
0F
0F
0F
0F
0F
0F
0F
0F
0F
0F
ENDCHAR

STARTCHAR ldbracertbt
ENCODING 174
SWIDTH 360 0
DWIDTH 14 0
BBX 8 38 1 -8
BITMAP
0F
0F
0F
0F
0F
0F
0F
0F
0F
0F
0F
0F
0F
0F
0F
0F
0F
0F
0F
0F
0F
0F
0F
0F
0F
0F
0F
0F
0F
0F
0F
0F
1E
1E
FE
FE
F8
F8
ENDCHAR

STARTCHAR ldbracelftmid
ENCODING 175
SWIDTH 360 0
DWIDTH 14 0
BBX 8 40 1 -10
BITMAP
0F
0F
0F
0F
0F
0F
0F
0F
0F
0F
0F
0F
0F
0F
0F
0F
1E
3E
F8
F8
3E
1E
0F
0F
0F
0F
0F
0F
0F
0F
0F
0F
0F
0F
0F
0F
0F
0F
0F
0F
ENDCHAR

STARTCHAR ldbracertmid
ENCODING 176
SWIDTH 360 0
DWIDTH 14 0
BBX 8 40 5 -10
BITMAP
F0
F0
F0
F0
F0
F0
F0
F0
F0
F0
F0
F0
F0
F0
F0
F0
F0
78
7C
1F
1F
7C
78
F0
F0
F0
F0
F0
F0
F0
F0
F0
F0
F0
F0
F0
F0
F0
F0
F0
ENDCHAR

STARTCHAR ldsigmalfttp
ENCODING 177
SWIDTH 360 0
DWIDTH 14 0
BBX 9 22 5 -10
BITMAP
FF80
FF80
FF80
FF80
7000
7000
3800
3800
3800
1C00
1C00
1C00
0E00
0E00
0E00
0700
0700
0700
0380
0380
0380
0180
ENDCHAR

STARTCHAR ldsigmalftbt
ENCODING 178
SWIDTH 360 0
DWIDTH 14 0
BBX 8 22 6 8
BITMAP
03
03
07
07
07
0E
0E
0C
1C
1C
1C
38
38
38
38
70
70
70
FF
FF
FF
FF
ENDCHAR

STARTCHAR ldbackslash
ENCODING 179
SWIDTH 360 0
DWIDTH 14 0
BBX 14 40 0 -10
BITMAP
C000
C000
E000
E000
E000
7000
7000
7000
3800
3800
3800
1C00
1C00
1C00
0E00
0E00
0E00
0700
0700
0700
0380
0380
0380
01C0
01C0
01C0
00E0
00E0
00E0
0070
0070
0070
0070
0038
0038
0038
001C
001C
001C
000C
ENDCHAR

STARTCHAR ldslash
ENCODING 180
SWIDTH 360 0
DWIDTH 14 0
BBX 14 40 0 -10
BITMAP
000C
000C
001C
001C
001C
0038
0038
0038
0070
0070
0070
00E0
00E0
00E0
01C0
01C0
01C0
0380
0380
0380
0700
0700
0700
0E00
0E00
0E00
1C00
1C00
1C00
3800
3800
3800
7000
7000
7000
E000
E000
E000
C000
C000
ENDCHAR

STARTCHAR ldsigmarttp
ENCODING 181
SWIDTH 360 0
DWIDTH 14 0
BBX 14 8 0 4
BITMAP
FFFC
FFFC
FFFC
FFFC
001C
001C
001C
001C
ENDCHAR

STARTCHAR ldsigmartbt
ENCODING 182
SWIDTH 360 0
DWIDTH 14 0
BBX 14 8 0 8
BITMAP
001C
001C
001C
001C
FFFC
FFFC
FFFC
FFFC
ENDCHAR

STARTCHAR ldsigmamid
ENCODING 183
SWIDTH 360 0
DWIDTH 14 0
BBX 8 40 0 -10
BITMAP
C0
C0
E0
E0
70
70
70
38
38
38
38
1C
1C
1C
0E
0E
0E
0F
07
07
07
07
07
0E
0E
0E
1C
1C
1C
1C
38
38
38
70
70
70
E0
E0
C0
C0
ENDCHAR

STARTCHAR lessequal
ENCODING 188
SWIDTH 360 0
DWIDTH 14 0
BBX 13 19 0 0
BITMAP
0018
0078
01F8
07F0
1FC0
7F00
FC00
7F00
1FC0
07F0
01F8
0078
0018
0000
0000
7FF8
7FF8
7FF8
7FF8
ENDCHAR

STARTCHAR notequal
ENCODING 189
SWIDTH 360 0
DWIDTH 14 0
BBX 12 20 1 0
BITMAP
00C0
00C0
0180
0180
FFF0
FFF0
FFF0
FFF0
0700
0700
0E00
0E00
FFF0
FFF0
FFF0
FFF0
1800
1800
3000
3000
ENDCHAR

STARTCHAR greaterequal
ENCODING 190
SWIDTH 360 0
DWIDTH 14 0
BBX 13 19 1 0
BITMAP
C000
F000
FC00
7F00
1FC0
07F0
01F8
07F0
1FC0
7F00
FC00
F000
C000
0000
0000
FFF0
FFF0
FFF0
FFF0
ENDCHAR

STARTCHAR integral
ENCODING 191
SWIDTH 360 0
DWIDTH 14 0
BBX 12 36 1 -8
BITMAP
01E0
07F0
07F0
0FF0
0F30
0F00
0F00
0F00
0F00
0F00
0F00
0F00
0F00
0F00
0F00
0F00
0F00
0F00
0F00
0F00
0F00
0F00
0F00
0F00
0F00
0F00
0F00
0F00
0F00
0F00
0F00
CF00
FF00
FE00
FE00
7800
ENDCHAR

STARTCHAR therefore
ENCODING 192
SWIDTH 360 0
DWIDTH 14 0
BBX 14 18 0 0
BITMAP
0780
0FC0
0FC0
0FC0
0780
0000
0000
0000
0000
0000
0000
0000
0000
7878
FCFC
FCFC
FCFC
7878
ENDCHAR

STARTCHAR proportional
ENCODING 193
SWIDTH 360 0
DWIDTH 14 0
BBX 12 16 1 2
BITMAP
1C70
7EF0
7FF0
FFF0
E780
E780
E700
E700
E700
E700
E780
E780
FFF0
7FF0
7EF0
1C70
ENDCHAR

STARTCHAR infinity
ENCODING 194
SWIDTH 360 0
DWIDTH 14 0
BBX 14 16 0 2
BITMAP
3870
7CF8
FFFC
FFFC
E79C
E31C
E31C
E31C
E31C
E31C
E31C
E79C
FFFC
FFFC
7CF8
3870
ENDCHAR

STARTCHAR divide
ENCODING 195
SWIDTH 360 0
DWIDTH 14 0
BBX 12 20 1 0
BITMAP
0600
0F00
0F00
0F00
0F00
0600
0000
0000
FFF0
FFF0
FFF0
FFF0
0000
0000
0600
0F00
0F00
0F00
0F00
0600
ENDCHAR

STARTCHAR Delta
ENCODING 196
SWIDTH 360 0
DWIDTH 14 0
BBX 12 22 1 0
BITMAP
0F00
0F00
1F80
1F80
3FC0
3FC0
79E0
79E0
F0F0
F0F0
F0F0
F0F0
F0F0
F0F0
F0F0
F0F0
F0F0
F0F0
FFF0
FFF0
FFF0
FFF0
ENDCHAR

STARTCHAR gradient
ENCODING 197
SWIDTH 360 0
DWIDTH 14 0
BBX 12 22 1 0
BITMAP
FFF0
FFF0
FFF0
FFF0
F0F0
F0F0
F0F0
F0F0
F0F0
F0F0
F0F0
F0F0
F0F0
F0F0
79E0
79E0
3FC0
3FC0
1F80
1F80
0F00
0F00
ENDCHAR

STARTCHAR Phi
ENCODING 198
SWIDTH 360 0
DWIDTH 14 0
BBX 14 22 0 0
BITMAP
1FE0
1FE0
0780
0780
0780
1FE0
7FF8
7FF8
F7BC
E79C
E79C
E79C
E79C
F7BC
7FF8
7FF8
1FE0
0780
0780
0780
1FE0
1FE0
ENDCHAR

STARTCHAR Gamma
ENCODING 199
SWIDTH 360 0
DWIDTH 14 0
BBX 12 22 1 0
BITMAP
FFF0
FFF0
FFF0
FFF0
3C70
3C70
3C70
3C00
3C00
3C00
3C00
3C00
3C00
3C00
3C00
3C00
3C00
3C00
FF80
FF80
FF80
FF80
ENDCHAR

STARTCHAR similar
ENCODING 200
SWIDTH 360 0
DWIDTH 14 0
BBX 12 6 1 9
BITMAP
3830
7E30
7FF0
FFE0
C7E0
C1C0
ENDCHAR

STARTCHAR approxequal
ENCODING 201
SWIDTH 360 0
DWIDTH 14 0
BBX 12 12 1 4
BITMAP
3830
7E30
FFF0
FFF0
C7E0
C1C0
0000
0000
FFF0
FFF0
FFF0
FFF0
ENDCHAR

STARTCHAR Theta
ENCODING 202
SWIDTH 360 0
DWIDTH 14 0
BBX 12 22 1 0
BITMAP
0F00
3FC0
3FC0
7FE0
79E0
F0F0
F0F0
F0F0
F6F0
F6F0
F6F0
F6F0
F6F0
F6F0
F0F0
F0F0
F0F0
79E0
7FE0
3FC0
3FC0
0F00
ENDCHAR

STARTCHAR multiply
ENCODING 203
SWIDTH 360 0
DWIDTH 14 0
BBX 12 14 1 3
BITMAP
4020
E070
F0F0
79E0
3FC0
1F80
0F00
0F00
1F80
3FC0
79E0
F0F0
E070
4020
ENDCHAR

STARTCHAR Lambda
ENCODING 204
SWIDTH 360 0
DWIDTH 14 0
BBX 12 22 1 0
BITMAP
0F00
0F00
1F80
1F80
3FC0
3FC0
79E0
79E0
F0F0
F0F0
F0F0
F0F0
F0F0
F0F0
F0F0
F0F0
F0F0
F0F0
F0F0
F0F0
F0F0
F0F0
ENDCHAR

STARTCHAR arrowdblboth
ENCODING 205
SWIDTH 360 0
DWIDTH 14 0
BBX 14 18 0 2
BITMAP
1860
1860
3030
3030
7FF8
7FF8
7FF8
FFFC
E01C
E01C
FFFC
7FF8
7FF8
7FF8
3030
3030
1860
1860
ENDCHAR

STARTCHAR arrowdblright
ENCODING 206
SWIDTH 360 0
DWIDTH 14 0
BBX 14 18 0 2
BITMAP
00C0
00C0
0060
0070
FFF0
FFF8
FFF8
FFFC
003C
003C
FFFC
FFF8
FFF8
FFF0
0070
0060
00C0
00C0
ENDCHAR

STARTCHAR equivalence
ENCODING 207
SWIDTH 360 0
DWIDTH 14 0
BBX 12 16 1 2
BITMAP
FFF0
FFF0
FFF0
FFF0
0000
0000
FFF0
FFF0
FFF0
FFF0
0000
0000
FFF0
FFF0
FFF0
FFF0
ENDCHAR

STARTCHAR Pi
ENCODING 208
SWIDTH 360 0
DWIDTH 14 0
BBX 12 22 1 0
BITMAP
FFF0
FFF0
FFF0
FFF0
79E0
79E0
79E0
79E0
79E0
79E0
79E0
79E0
79E0
79E0
79E0
79E0
79E0
79E0
79E0
79E0
79E0
79E0
ENDCHAR

STARTCHAR Psi
ENCODING 209
SWIDTH 360 0
DWIDTH 14 0
BBX 12 22 1 0
BITMAP
3FC0
3FC0
0F00
0F00
CF30
CF30
CF30
CF30
CF30
CF30
CF30
CF30
CF30
EF70
7FE0
7FE0
0F00
0F00
0F00
0F00
3FC0
3FC0
ENDCHAR

STARTCHAR Sigma
ENCODING 211
SWIDTH 360 0
DWIDTH 14 0
BBX 12 22 1 0
BITMAP
FFF0
FFF0
FFF0
FFF0
7830
7830
3C00
3C00
1E00
1E00
0F00
0F00
1E00
1E00
3C00
3C00
7830
7830
FFF0
FFF0
FFF0
FFF0
ENDCHAR

STARTCHAR radical
ENCODING 214
SWIDTH 360 0
DWIDTH 14 0
BBX 13 32 1 -4
BITMAP
0078
0078
0078
0078
0070
0070
0070
0070
00F0
00F0
00F0
00F0
F0E0
F0E0
F0E0
F0E0
71E0
71E0
79E0
79C0
39C0
39C0
3DC0
3DC0
1DC0
1DC0
1FC0
1F80
0F80
0F80
0F80
0F80
ENDCHAR

STARTCHAR Omega
ENCODING 215
SWIDTH 360 0
DWIDTH 14 0
BBX 12 22 1 0
BITMAP
1F80
7FE0
7FE0
FFF0
F0F0
F0F0
F0F0
F0F0
F0F0
F0F0
F0F0
F0F0
F0F0
70E0
79E0
39C0
39C0
39C0
F9F0
F9F0
F9F0
F9F0
ENDCHAR

STARTCHAR Xi
ENCODING 216
SWIDTH 360 0
DWIDTH 14 0
BBX 12 22 1 0
BITMAP
FFF0
FFF0
FFF0
FFF0
E070
E070
0000
0000
30C0
3FC0
3FC0
3FC0
3FC0
30C0
0000
0000
E070
E070
FFF0
FFF0
FFF0
FFF0
ENDCHAR

STARTCHAR Upsilon1
ENCODING 217
SWIDTH 360 0
DWIDTH 14 0
BBX 14 22 0 0
BITMAP
F03C
F03C
F87C
7878
3870
3CF0
1CE0
1CE0
0FC0
0FC0
0FC0
0780
0780
0780
0780
0780
0780
0780
1FE0
1FE0
1FE0
1FE0
ENDCHAR

STARTCHAR propersubset
ENCODING 218
SWIDTH 360 0
DWIDTH 14 0
BBX 12 18 1 2
BITMAP
0FF0
3FF0
7FF0
7FF0
F800
F000
F000
F000
F000
F000
F000
F000
F000
F800
7FF0
7FF0
3FF0
0FF0
ENDCHAR

STARTCHAR propersuperset
ENCODING 219
SWIDTH 360 0
DWIDTH 14 0
BBX 12 18 1 2
BITMAP
FF00
FFC0
FFE0
FFE0
01F0
00F0
00F0
00F0
00F0
00F0
00F0
00F0
00F0
01F0
FFE0
FFE0
FFC0
FF00
ENDCHAR

STARTCHAR intersection
ENCODING 220
SWIDTH 360 0
DWIDTH 14 0
BBX 12 20 1 1
BITMAP
1F80
7FE0
7FE0
FFF0
F9F0
F0F0
F0F0
F0F0
F0F0
F0F0
F0F0
F0F0
F0F0
F0F0
F0F0
F0F0
F0F0
F0F0
F0F0
F0F0
ENDCHAR

STARTCHAR union
ENCODING 221
SWIDTH 360 0
DWIDTH 14 0
BBX 12 20 1 1
BITMAP
F0F0
F0F0
F0F0
F0F0
F0F0
F0F0
F0F0
F0F0
F0F0
F0F0
F0F0
F0F0
F0F0
F0F0
F0F0
F9F0
FFF0
7FE0
7FE0
1F80
ENDCHAR

STARTCHAR logicaland
ENCODING 222
SWIDTH 360 0
DWIDTH 14 0
BBX 14 19 0 1
BITMAP
0780
0780
0FC0
0FC0
0FC0
1FE0
1CE0
1CE0
1CE0
3CF0
3870
3870
3870
7878
7038
7038
7038
F03C
F03C
ENDCHAR

STARTCHAR logicalor
ENCODING 223
SWIDTH 360 0
DWIDTH 14 0
BBX 14 19 0 1
BITMAP
F03C
F03C
7038
7038
7038
7878
3870
3870
3870
3CF0
1CE0
1CE0
1CE0
1FE0
0FC0
0FC0
0FC0
0780
0780
ENDCHAR

STARTCHAR logicalnot
ENCODING 224
SWIDTH 360 0
DWIDTH 14 0
BBX 12 9 1 6
BITMAP
FFF0
FFF0
FFF0
FFF0
00F0
00F0
00F0
00F0
00F0
ENDCHAR

STARTCHAR alpha
ENCODING 225
SWIDTH 360 0
DWIDTH 14 0
BBX 12 18 1 0
BITMAP
1E70
3F70
7FF0
7FE0
F1E0
F1E0
F1E0
F1E0
F1C0
F1C0
F1C0
F1C0
F1C0
F3C0
7FF0
7FF0
3F70
1C70
ENDCHAR

STARTCHAR beta
ENCODING 226
SWIDTH 360 0
DWIDTH 14 0
BBX 13 32 0 -8
BITMAP
03C0
0FF0
0FF0
1FF8
1C78
1C78
1C78
1C78
3C70
3C70
3FE0
3FE0
3FF0
3FF8
3878
3878
7878
7878
7878
7878
7FF8
7FF0
7FF0
77C0
F000
F000
F000
F000
F000
F000
F000
F000
ENDCHAR

STARTCHAR chi
ENCODING 227
SWIDTH 360 0
DWIDTH 14 0
BBX 14 24 0 -6
BITMAP
1C1C
1C1C
1C3C
1C38
1C78
0E70
0EF0
0EE0
07E0
07C0
07C0
0780
0F80
0F80
1F80
1DC0
39C0
39C0
71C0
70E0
F0E0
E0E0
E0E0
C0E0
ENDCHAR

STARTCHAR delta
ENCODING 228
SWIDTH 360 0
DWIDTH 14 0
BBX 12 24 1 0
BITMAP
07C0
1FC0
1FC0
3FC0
3C00
1C00
1E00
0F00
0780
1FC0
3FC0
7FE0
79E0
F0F0
F0F0
F0F0
F0F0
F0F0
F0F0
F8F0
7FE0
7FE0
3FC0
1F80
ENDCHAR

STARTCHAR epsilon
ENCODING 229
SWIDTH 360 0
DWIDTH 14 0
BBX 11 18 1 0
BITMAP
1FE0
7FE0
7FE0
7FE0
F000
F000
F000
FFC0
FFC0
FFC0
F000
F000
F000
F000
FFC0
7FC0
7FC0
1FC0
ENDCHAR

STARTCHAR phi
ENCODING 230
SWIDTH 360 0
DWIDTH 14 0
BBX 12 32 1 -8
BITMAP
0300
0300
0300
0300
0300
0300
1F80
7FE0
7FE0
FFF0
E670
E670
E670
E670
E670
E670
E670
E670
E670
E670
FFF0
7FE0
7FE0
1F80
0C00
0C00
0C00
0C00
0C00
0C00
0C00
0C00
ENDCHAR

STARTCHAR gamma
ENCODING 231
SWIDTH 360 0
DWIDTH 14 0
BBX 13 24 0 -6
BITMAP
F078
F078
F078
F070
70F0
70F0
70E0
78E0
39E0
39C0
39C0
39C0
1980
1F80
1F80
1F00
0F00
0F00
0E00
1E00
1E00
1C00
3C00
3C00
ENDCHAR

STARTCHAR eta
ENCODING 232
SWIDTH 360 0
DWIDTH 14 0
BBX 12 24 1 -6
BITMAP
F7C0
F7E0
FFF0
FFF0
3CF0
3CF0
3CF0
3CF0
78F0
78F0
78F0
78E0
71E0
71E0
F1E0
F1E0
F1C0
F1C0
03C0
03C0
03C0
03C0
03C0
03C0
ENDCHAR

STARTCHAR iota
ENCODING 233
SWIDTH 360 0
DWIDTH 14 0
BBX 8 18 3 0
BITMAP
FC
FC
FC
FC
3C
3C
78
78
78
78
78
78
F0
F0
FF
FF
7F
7F
ENDCHAR

STARTCHAR theta
ENCODING 234
SWIDTH 360 0
DWIDTH 14 0
BBX 12 24 1 0
BITMAP
0780
1FC0
3FE0
3FE0
78F0
78F0
70F0
F0F0
F0F0
F0F0
FFF0
FFF0
FFF0
FFF0
F0F0
F0F0
F0F0
F0E0
F1E0
F1E0
7FC0
7FC0
3F80
1E00
ENDCHAR

STARTCHAR kappa
ENCODING 235
SWIDTH 360 0
DWIDTH 14 0
BBX 13 18 0 0
BITMAP
3CF8
3CF8
3DE0
3DE0
3DC0
3FC0
3F80
7F80
7F80
7F80
7BC0
7BC0
79C0
F1E0
F1E0
F0F8
F0F8
F0F8
ENDCHAR

STARTCHAR lambda
ENCODING 236
SWIDTH 360 0
DWIDTH 14 0
BBX 11 24 1 0
BITMAP
7F80
7F80
7F80
7F80
0780
0780
0780
0780
0780
0F80
0F80
0FC0
1FC0
1FC0
3DC0
3DE0
39E0
79E0
79E0
71E0
F1E0
F1E0
E1E0
E1E0
ENDCHAR

STARTCHAR nu
ENCODING 238
SWIDTH 360 0
DWIDTH 14 0
BBX 12 18 1 0
BITMAP
FCF0
FCF0
FCF0
FCF0
3CF0
3CF0
3CF0
3CF0
3CE0
3DE0
3DE0
3DC0
3FC0
3FC0
3F00
3F00
3C00
3C00
ENDCHAR

STARTCHAR partialdiff
ENCODING 239
SWIDTH 360 0
DWIDTH 14 0
BBX 12 24 1 0
BITMAP
FC00
FF00
FFC0
FFC0
07E0
01E0
01E0
00F0
1EF0
7FF0
7FF0
FFF0
F0F0
F0F0
F0F0
F0F0
F0F0
F0F0
F0F0
F0F0
FFF0
7FE0
7FE0
1F80
ENDCHAR

STARTCHAR pi
ENCODING 240
SWIDTH 360 0
DWIDTH 14 0
BBX 12 18 1 0
BITMAP
FFF0
FFF0
FFF0
FFF0
79E0
79E0
79E0
79E0
79E0
79E0
71C0
71C0
F3C0
F3C0
F3C0
F3C0
F3C0
F3C0
ENDCHAR

STARTCHAR psi
ENCODING 241
SWIDTH 360 0
DWIDTH 14 0
BBX 13 32 0 -8
BITMAP
0180
0180
0180
0180
0180
0180
71B8
73B8
7338
7338
7338
7338
7338
7338
7738
F678
F678
E678
E670
E670
F6F0
7FE0
7FC0
3F80
0C00
0C00
0C00
0C00
0C00
0C00
0C00
0C00
ENDCHAR

STARTCHAR rho
ENCODING 242
SWIDTH 360 0
DWIDTH 14 0
BBX 12 24 1 -6
BITMAP
1F80
7FE0
7FE0
FFF0
F0F0
F0F0
F0F0
F0F0
F0F0
F0F0
F0F0
F0F0
F0F0
F0F0
FFF0
FFE0
FFE0
FF80
F000
F000
F000
F000
F000
F000
ENDCHAR

STARTCHAR sigma
ENCODING 243
SWIDTH 360 0
DWIDTH 14 0
BBX 13 18 1 0
BITMAP
0FF8
3FF8
7FF8
7FF8
F8F0
F8F0
F0F0
F0F0
F0F0
F0F0
F0F0
F0F0
F1F0
F1F0
FFE0
7FE0
7FC0
1F00
ENDCHAR

STARTCHAR tau
ENCODING 244
SWIDTH 360 0
DWIDTH 14 0
BBX 12 18 1 0
BITMAP
FFC0
FFC0
FFC0
FFC0
3C00
3C00
3C00
3C00
3C00
3C00
3C00
3C00
3C70
3C70
3FF0
3FF0
0FC0
0FC0
ENDCHAR

STARTCHAR florin
ENCODING 246
SWIDTH 360 0
DWIDTH 14 0
BBX 13 29 1 -6
BITMAP
00F8
03F8
03F8
07F8
0780
0700
0700
0700
3FE0
3FE0
3FE0
3FE0
0700
0700
0700
0700
0F00
0F00
0F00
0E00
0E00
0E00
0E00
1E00
1E00
FC00
FC00
FC00
F000
ENDCHAR

STARTCHAR omega
ENCODING 247
SWIDTH 360 0
DWIDTH 14 0
BBX 14 18 0 0
BITMAP
701C
701C
739C
739C
739C
739C
E39C
E39C
E39C
E39C
E39C
E39C
E79C
E79C
FFF8
FFF8
3CF0
3CF0
ENDCHAR

STARTCHAR xi
ENCODING 248
SWIDTH 360 0
DWIDTH 14 0
BBX 12 32 1 -8
BITMAP
7FF0
7FF0
7FF0
7FF0
0F00
1E00
1C00
3C00
3C00
3C00
3F00
1F00
3F00
7F00
7000
F000
F000
F000
F000
F000
FF80
FFE0
7FE0
3FF0
00F0
00F0
00F0
00F0
03F0
03E0
03E0
0380
ENDCHAR

STARTCHAR upsilon
ENCODING 249
SWIDTH 360 0
DWIDTH 14 0
BBX 12 18 1 0
BITMAP
F0F0
F0F0
F0F0
F0F0
F0F0
F0F0
F0F0
F0F0
F0F0
F0F0
F0F0
F0F0
F0F0
F0F0
7FE0
7FE0
3FC0
1F80
ENDCHAR

STARTCHAR zeta
ENCODING 250
SWIDTH 360 0
DWIDTH 14 0
BBX 12 32 1 -8
BITMAP
FFF0
FFF0
FFF0
FFF0
01E0
03C0
0780
0F00
1F00
1E00
3C00
7C00
7800
7800
F800
F000
F000
F000
F000
F000
FFC0
7FE0
7FF0
1FF0
00F0
00F0
00F0
00F0
00E0
03E0
03C0
0380
ENDCHAR

STARTCHAR arrowleft
ENCODING 251
SWIDTH 360 0
DWIDTH 14 0
BBX 13 16 1 2
BITMAP
0300
0700
0F00
1E00
3C00
3800
7FF8
FFF8
FFF8
7FF8
3800
3C00
1E00
0F00
0700
0300
ENDCHAR

STARTCHAR arrowup
ENCODING 252
SWIDTH 360 0
DWIDTH 14 0
BBX 12 26 1 -2
BITMAP
0600
0F00
0F00
1F80
1F80
3FC0
3FC0
7FE0
6F60
EF70
CF30
CF30
0F00
0F00
0F00
0F00
0F00
0F00
0F00
0F00
0F00
0F00
0F00
0F00
0F00
0F00
ENDCHAR

STARTCHAR arrowright
ENCODING 253
SWIDTH 360 0
DWIDTH 14 0
BBX 13 16 0 2
BITMAP
0600
0700
0780
03C0
01E0
00E0
FFF0
FFF8
FFF8
FFF0
00E0
01E0
03C0
0780
0700
0600
ENDCHAR

STARTCHAR arrowdown
ENCODING 254
SWIDTH 360 0
DWIDTH 14 0
BBX 12 26 1 -2
BITMAP
0F00
0F00
0F00
0F00
0F00
0F00
0F00
0F00
0F00
0F00
0F00
0F00
0F00
0F00
CF30
CF30
EF70
6F60
7FE0
3FC0
3FC0
1F80
1F80
0F00
0F00
0600
ENDCHAR
ENDFONT
